<svg width="100" height="40" viewBox="0 0 100 40" fill="none" xmlns="http://www.w3.org/2000/svg">
<rect width="100" height="40" rx="10" fill="#5D405C"/>
<path d="M47.136 17.726V20.708H51.868V22.248H47.136V26H45.316V16.2H52.47V17.726H47.136ZM53.9253 18.524H55.6753V26H53.9253V18.524ZM54.8073 17.292C54.49 17.292 54.224 17.194 54.0093 16.998C53.7947 16.7927 53.6873 16.5407 53.6873 16.242C53.6873 15.9433 53.7947 15.696 54.0093 15.5C54.224 15.2947 54.49 15.192 54.8073 15.192C55.1247 15.192 55.3907 15.29 55.6053 15.486C55.82 15.6727 55.9273 15.9107 55.9273 16.2C55.9273 16.508 55.82 16.7693 55.6053 16.984C55.4 17.1893 55.134 17.292 54.8073 17.292ZM57.9722 15.612H59.7222V26H57.9722V15.612ZM66.8822 25.594C66.6769 25.762 66.4249 25.888 66.1262 25.972C65.8369 26.056 65.5289 26.098 65.2022 26.098C64.3809 26.098 63.7462 25.8833 63.2982 25.454C62.8502 25.0247 62.6262 24.3993 62.6262 23.578V19.98H61.3942V18.58H62.6262V16.872H64.3762V18.58H66.3782V19.98H64.3762V23.536C64.3762 23.9 64.4649 24.18 64.6422 24.376C64.8196 24.5627 65.0762 24.656 65.4122 24.656C65.8042 24.656 66.1309 24.5533 66.3922 24.348L66.8822 25.594ZM69.9878 19.616C70.4918 18.832 71.3785 18.44 72.6478 18.44V20.106C72.4985 20.078 72.3632 20.064 72.2418 20.064C71.5605 20.064 71.0285 20.2647 70.6458 20.666C70.2632 21.058 70.0718 21.6273 70.0718 22.374V26H68.3218V18.524H69.9878V19.616ZM76.9474 18.44C78.0487 18.44 78.8887 18.706 79.4674 19.238C80.0554 19.7607 80.3494 20.554 80.3494 21.618V26H78.6974V25.09C78.4827 25.4167 78.1747 25.6687 77.7734 25.846C77.3814 26.014 76.9054 26.098 76.3454 26.098C75.7854 26.098 75.2954 26.0047 74.8754 25.818C74.4554 25.622 74.1287 25.356 73.8954 25.02C73.6714 24.6747 73.5594 24.2873 73.5594 23.858C73.5594 23.186 73.8067 22.6493 74.3014 22.248C74.8054 21.8373 75.594 21.632 76.6674 21.632H78.5994V21.52C78.5994 20.9973 78.4407 20.596 78.1234 20.316C77.8154 20.036 77.3534 19.896 76.7374 19.896C76.3174 19.896 75.902 19.9613 75.4914 20.092C75.09 20.2227 74.7494 20.4047 74.4694 20.638L73.7834 19.364C74.1754 19.0653 74.6467 18.8367 75.1974 18.678C75.748 18.5193 76.3314 18.44 76.9474 18.44ZM76.7094 24.824C77.148 24.824 77.5354 24.726 77.8714 24.53C78.2167 24.3247 78.4594 24.0353 78.5994 23.662V22.794H76.7934C75.7854 22.794 75.2814 23.1253 75.2814 23.788C75.2814 24.1053 75.4074 24.3573 75.6594 24.544C75.9114 24.7307 76.2614 24.824 76.7094 24.824ZM84.2613 19.616C84.7653 18.832 85.6519 18.44 86.9213 18.44V20.106C86.7719 20.078 86.6366 20.064 86.5153 20.064C85.8339 20.064 85.3019 20.2647 84.9193 20.666C84.5366 21.058 84.3453 21.6273 84.3453 22.374V26H82.5953V18.524H84.2613V19.616Z" fill="#F7F7F7"/>
<path d="M17.3333 15.3333V16.08C17.3346 16.1679 17.3705 16.2518 17.4333 16.3133L22.2866 21.22C22.3495 21.2816 22.3854 21.3654 22.3866 21.4533V26.0467C22.3865 26.1091 22.404 26.1704 22.437 26.2234C22.47 26.2765 22.5172 26.3192 22.5733 26.3467L25.2066 27.2867C25.2575 27.3116 25.3139 27.3232 25.3705 27.3202C25.427 27.3173 25.4819 27.3 25.53 27.27C25.578 27.24 25.6176 27.1982 25.645 27.1486C25.6724 27.0991 25.6868 27.0433 25.6866 26.9867V21.3933C25.6959 21.3032 25.7387 21.2199 25.8066 21.16L30.5533 16.3267C30.6161 16.2651 30.6521 16.1813 30.6533 16.0933V15.3333H17.3333Z" fill="white"/>
</svg>
